Coordinates
version=1
nRows=17
nColumns=40
inDegrees=yes

Units are S.I. units (second, meters, Newtons, ...)
If the header above contains a line with 'inDegrees', this indicates whether rotational values are in degrees (yes) or radians (no).

endheader
time	pelvis_tilt	pelvis_list	pelvis_rotation	pelvis_tx	pelvis_ty	pelvis_tz	hip_flexion_r	hip_adduction_r	hip_rotation_r	knee_angle_r	knee_angle_r_beta	ankle_angle_r	subtalar_angle_r	mtp_angle_r	hip_flexion_l	hip_adduction_l	hip_rotation_l	knee_angle_l	knee_angle_l_beta	ankle_angle_l	subtalar_angle_l	mtp_angle_l	lumbar_extension	lumbar_bending	lumbar_rotation	arm_flex_r	arm_add_r	arm_rot_r	elbow_flex_r	pro_sup_r	wrist_flex_r	wrist_dev_r	arm_flex_l	arm_add_l	arm_rot_l	elbow_flex_l	pro_sup_l	wrist_flex_l	wrist_dev_l
      0.94500000	      1.87244124	      6.99417429	      4.42515737	      2.70869818	      0.93134210	      0.61568059	     18.65237176	     -8.19615205	      2.85586366	     98.55499015	      1.72010907	      1.09847491	      0.00000000	      0.00000000	     18.62361812	     13.15371424	      4.43154904	     53.97864337	      0.94210505	     24.77175133	      0.00000000	      0.00000000	    -12.93410122	     -9.25594202	     -6.27837384	    -10.35437847	    -11.93680255	     24.25006681	     58.75292380	     56.43225894	      0.00000000	      0.00000000	    -10.15746062	    -17.25073456	     11.80434099	     86.55276775	     61.67067795	      0.00000000	      0.00000000
      0.95000000	      1.95511594	      6.45613805	      4.48502038	      2.72311674	      0.93226776	      0.61585221	     19.85303033	     -7.53912015	      2.92768529	     98.25075702	      1.71479920	      1.63919920	      0.00000000	      0.00000000	     17.33348759	     12.59888628	      4.91990148	     53.74880001	      0.93809353	     25.31509832	      0.00000000	      0.00000000	    -12.93274840	     -8.55509304	     -6.82189044	    -11.16485218	    -12.05094471	     24.02629640	     58.48182540	     56.31940177	      0.00000000	      0.00000000	     -9.50891769	    -17.17671085	     11.87489914	     87.67201340	     61.90104632	      0.00000000	      0.00000000
      0.95500000	      1.80626592	      5.96331488	      4.38178000	      2.73767856	      0.93309317	      0.61668650	     21.30874634	     -6.81206561	      3.17797293	     97.83341084	      1.70751514	      2.04808353	      0.00000000	      0.00000000	     16.20500549	     11.96629774	      5.09071958	     53.26114720	      0.92958238	     25.68313160	      0.00000000	      0.00000000	    -12.52219097	     -8.03715192	     -7.31796253	    -11.88129852	    -12.25168295	     23.96796699	     58.25351877	     56.26844655	      0.00000000	      0.00000000	     -8.81552520	    -17.12411400	     11.79224291	     88.34530167	     61.98935241	      0.00000000	      0.00000000
      0.96000000	      1.77491076	      5.42117175	      4.37561827	      2.75207322	      0.93445305	      0.61666559	     22.58548128	     -6.23003253	      3.15970285	     97.27779098	      1.69781774	      2.44156865	      0.00000000	      0.00000000	     14.90836767	     11.33341843	      5.28836146	     52.67085270	      0.91927980	     25.94285358	      0.00000000	      0.00000000	    -12.27971901	     -7.32401637	     -8.01766585	    -12.66502329	    -12.57028116	     23.89836431	     58.01963941	     56.22332869	      0.00000000	      0.00000000	     -8.23293460	    -16.98696424	     11.81400382	     88.89235064	     62.07961047	      0.00000000	      0.00000000
      0.96500000	      2.08804581	      4.58870080	      4.19883995	      2.76639321	      0.93637399	      0.61714054	     23.39381923	     -5.11157247	      3.21116983	     96.43657953	      1.68313583	      2.95341789	      0.00000000	      0.00000000	     13.29613177	     10.27678582	      5.40954981	     52.20095417	      0.91107852	     26.49234311	      0.00000000	      0.00000000	    -12.50864256	     -6.28836708	     -8.00106203	    -13.60007890	    -12.96011233	     23.51659979	     58.12039524	     56.16062660	      0.00000000	      0.00000000	     -7.65017585	    -16.71023629	     11.90715993	     90.77226922	     62.42542668	      0.00000000	      0.00000000
      0.97000000	      1.70036454	      4.06595614	      4.35585295	      2.78035944	      0.93735919	      0.61728064	     25.04772662	     -4.57880856	      2.99961085	     95.72254190	      1.67067352	      3.23764396	      0.00000000	      0.00000000	     12.47649378	      9.66380533	      5.67995980	     51.67035378	      0.90181780	     26.59238958	      0.00000000	      0.00000000	    -11.97727240	     -5.63723340	     -8.75888582	    -14.44316666	    -13.26226730	     22.91666981	     58.56835823	     56.12407275	      0.00000000	      0.00000000	     -7.31858566	    -16.77496251	     11.88704472	     92.18596613	     62.68458240	      0.00000000	      0.00000000
      0.97500000	      2.27880228	      3.47672120	      4.49812139	      2.79418286	      0.94045937	      0.61705564	     25.43374137	     -4.04684232	      2.64322065	     94.59379592	      1.65097319	      3.44031636	      0.00000000	      0.00000000	     10.53732685	      8.95378024	      6.15436765	     50.95771213	      0.88937986	     26.47092195	      0.00000000	      0.00000000	    -12.59039932	     -4.76761739	     -9.51825939	    -15.13060867	    -13.56145376	     22.51043935	     58.92015407	     56.09313282	      0.00000000	      0.00000000	     -6.59283721	    -16.62574372	     11.81301623	     93.45853818	     62.90558960	      0.00000000	      0.00000000
      0.98000000	      2.45090088	      3.08428140	      4.53152789	      2.80884455	      0.94334657	      0.61676486	     26.17514717	     -3.63116488	      2.55429309	     93.36637060	      1.62955058	      3.75721280	      0.00000000	      0.00000000	      8.93921140	      8.37409269	      6.20409735	     50.01378704	      0.87290526	     25.90491326	      0.00000000	      0.00000000	    -12.62465399	     -4.18450239	    -10.15784716	    -15.98643747	    -13.91173327	     22.12062559	     59.33928829	     56.06892409	      0.00000000	      0.00000000	     -6.10210910	    -16.56325817	     11.70916062	     94.73108534	     63.13711617	      0.00000000	      0.00000000
      0.98500000	      2.50253826	      2.78548628	      4.45144314	      2.82404523	      0.94655642	      0.61692953	     26.95202457	     -3.29802524	      2.51594108	     92.01417880	      1.60595038	      4.05516248	      0.00000000	      0.00000000	      7.37866484	      7.87234602	      6.17442082	     48.87923611	      0.85310361	     25.33909747	      0.00000000	      0.00000000	    -12.43389409	     -3.72949496	    -10.75936807	    -16.90148316	    -14.18926749	     21.73840325	     59.61179124	     56.01151037	      0.00000000	      0.00000000	     -5.86525232	    -16.48560879	     11.60479413	     95.79891087	     63.36194000	      0.00000000	      0.00000000
      0.99000000	      2.19653787	      2.31902096	      4.58133647	      2.83944251	      0.94958911	      0.61735068	     28.03546626	     -2.82267111	      2.30469257	     90.50692883	      1.57964390	      4.37921757	      0.00000000	      0.00000000	      6.32631860	      7.13225051	      6.15938305	     47.89033639	      0.83584405	     24.74229680	      0.00000000	      0.00000000	    -11.80930459	     -3.19913055	    -11.50003398	    -17.71892142	    -14.44422442	     21.67420961	     59.48772760	     55.97431278	      0.00000000	      0.00000000	     -5.56147038	    -16.46022690	     11.57689835	     96.34941350	     63.46568000	      0.00000000	      0.00000000
      0.99500000	      2.20814632	      1.85565349	      4.57064725	      2.85436872	      0.95306032	      0.61772566	     28.77311129	     -2.37115614	      2.08992040	     88.96400387	      1.55271478	      4.80642618	      0.00000000	      0.00000000	      4.91127296	      6.43995328	      6.21487017	     46.80801062	      0.81695390	     23.64480173	      0.00000000	      0.00000000	    -11.56004108	     -2.59485888	    -12.11861226	    -18.48507645	    -14.72027337	     21.44353889	     59.52342825	     55.93280902	      0.00000000	      0.00000000	     -5.27197279	    -16.37918044	     11.54096477	     97.34375717	     63.65055342	      0.00000000	      0.00000000
      1.00000000	      2.48426666	      1.20395104	      4.35492089	      2.86939763	      0.95733147	      0.61852824	     29.11675158	     -1.61508155	      1.87873186	     87.00539884	      1.51853068	      4.86887657	      0.00000000	      0.00000000	      3.29444889	      5.45394707	      6.07463437	     45.82527146	      0.79980187	     22.62418588	      0.00000000	      0.00000000	    -11.75430614	     -1.78179610	    -12.53500008	    -19.16635829	    -15.04707373	     20.99624805	     59.84603210	     55.87025518	      0.00000000	      0.00000000	     -5.17310133	    -16.38951214	     11.34905255	     98.78098279	     63.93312200	      0.00000000	      0.00000000
      1.00500000	      2.34795388	      0.80358003	      4.27551986	      2.88435026	      0.96091191	      0.61897126	     29.88721599	     -1.08957139	      1.87839188	     85.17033398	      1.48650275	      4.85668975	      0.00000000	      0.00000000	      2.22601664	      4.76151500	      5.70456600	     44.88920236	      0.78346438	     21.18426149	      0.00000000	      0.00000000	    -11.41687518	     -1.25795128	    -13.21202852	    -19.81255549	    -15.30398910	     20.81239892	     59.92083713	     55.82843225	      0.00000000	      0.00000000	     -4.98960076	    -16.29018436	     11.21139506	     99.64737674	     64.09906571	      0.00000000	      0.00000000
      1.01000000	      2.32902995	      0.23486044	      4.09886551	      2.89965476	      0.96488096	      0.61982231	     30.36647112	     -0.44387647	      1.65932001	     83.12511997	      1.45080703	      5.28566139	      0.00000000	      0.00000000	      0.99541119	      3.89254096	      5.52181110	     43.92026120	      0.76655317	     19.46477735	      0.00000000	      0.00000000	    -11.11184242	     -0.59419362	    -13.72609705	    -20.45346797	    -15.68027551	     20.57479302	     60.02245878	     55.78597576	      0.00000000	      0.00000000	     -4.82452135	    -16.24641755	     11.13415771	    100.48058870	     64.27405247	      0.00000000	      0.00000000
      1.01500000	      2.43217806	     -0.09079623	      3.86047603	      2.91492431	      0.96923094	      0.62070566	     30.69133711	     -0.04495450	      1.62156781	     81.05598716	      1.41469385	      5.58152831	      0.00000000	      0.00000000	     -0.38213525	      3.25137408	      5.03961069	     42.85750280	      0.74800453	     17.63474485	      0.00000000	      0.00000000	    -10.99947544	     -0.18177606	    -14.13853033	    -21.10765888	    -15.96359171	     20.40562485	     60.14737232	     55.76067306	      0.00000000	      0.00000000	     -4.67454323	    -16.30742927	     11.06016498	    101.34439042	     64.44655946	      0.00000000	      0.00000000
      1.02000000	      2.39310038	     -0.84351621	      3.70456779	      2.93056355	      0.97339492	      0.62138392	     31.00886514	      0.76698616	      1.26273399	     78.72551320	      1.37401941	      6.13579428	      0.00000000	      0.00000000	     -1.54927623	      2.22961215	      4.78388339	     41.87880182	      0.73092298	     15.83313759	      0.00000000	      0.00000000	    -10.67999766	      0.73212113	    -14.61015330	    -21.77866571	    -16.38682305	     20.13251486	     60.29120850	     55.72394335	      0.00000000	      0.00000000	     -4.68800589	    -16.21112457	     11.06639839	    102.20230769	     64.64483564	      0.00000000	      0.00000000
      1.02500000	      2.60413541	     -1.37752300	      3.42574590	      2.94597667	      0.97788846	      0.62219426	     31.01902512	      1.36268615	      1.09699528	     76.33939353	      1.33237377	      6.11145770	      0.00000000	      0.00000000	     -2.97281142	      1.43289886	      4.25243685	     40.86229501	      0.71318159	     13.85566419	      0.00000000	      0.00000000	    -10.66997658	      1.42522334	    -14.85899762	    -22.46497158	    -16.75044275	     19.83681648	     60.67776018	     55.71429512	      0.00000000	      0.00000000	     -4.54936203	    -16.09475058	     10.96843083	    103.07569058	     64.83792420	      0.00000000	      0.00000000
